<mxfile type="device" compressed="false">
    <diagram id="Network Topology" name="Network Topology">
      <mxGraphModel dx="1360" dy="864" grid="1" gridSize="10" guides="1" tooltips="1" connect="1" arrows="1" fold="1" page="1" pageScale="1" pageWidth="827" pageHeight="1169" math="0" shadow="1">
        <root>
          <mxCell id="0" />   
          <mxCell id="1" parent="0" />
        <object id="pe1" label="pe1">
      <mxCell style="shape=image;imageAlign=center;imageVerticalAlign=middle;labelPosition=left;align=right;verticalLabelPosition=top;spacingLeft=0;verticalAlign=bottom;spacingTop=0;spacing=0;image=data:image/png,iVBORw0KGgoAAAANSUhEUgAAAFgAAABYCAYAAABxlTA0AAAAAXNSR0IArs4c6QAAAARnQU1BAACxjwv8YQUAAAAJcEhZcwAAFxEAABcRAcom8z8AAAikSURBVHhe7ZwJbBRVGMe3pUBrASkUlVMpV6EUQSlCCqhEjbYiIQEUETFyVEAr3hDwquCFVE2EYoTWCBTk8KgmiBfGqDEoRbkE5JByWW9UtJTC5/d/MwPD8na7OzOvu4vvS35pd3bezPS337735r039flSskijiKZZf2nBKtGCFaMFK0YLVowWrBgtWDFasGK0YMVowYrRghUTlYIbX8IX1lv+XqwRVYKb9SFfYiYlpPYlX1IP+T6xRtQIhlxfF2rf4wbasHE7jc57lF+nyfeVgYyPS+cyncWHJI4n26+uiQrBpty0jFzavfcAIU6cOEE33jY1NMnnXkoJLfrSkFH308hx0ykzeyT5knvK961rIi7YytxuOSz3oJBrxQlm+JiHapfcqCc1aXcFVR2tFuUK5y7hMh3l+9Y1ERV8WuaeLtcKSB5Rm2QW3Ljt5VT582+izKw5xbx/J/m+dU3EBFtyOXP3VBwSYhBHzSw8Wm38tCKoZC3YjwDVwosvv04LFr0tft+6fQ/d9eBs8TsCdXLA6kILtgG5cWa1UHFK7qLlq1lKGyoqXiVe7913iHz1utJtEx8TrxGoLqQNnxZsg7tQPfuNoH0HK4UMxOIV75GvQQZLuYhKSt8V2yr2/0gNL8jmbe1ofP5Msc2K2yc/Tr6G3U8dUwu2kdCVcoffLUQgFiNzIfeci1lKOhUveUdsh+DElv2N7hZnrF3yHPQSErrxxZt3e1qwDVH/duL+6gx6lbPVl8RiIdesl88Q3KiXIdLXge6Z/jy9ULRUVB3o+548phYsoSHfbTXgrznGHSAX2wIJxnuQjP2R7Xa5QAuW0BT4DegEEyzK8P7+ZYAWHCK1CQ6EFhwiWrBiIi0YjafV4Mred4IWbMLnzhkxhdp1v150JT2T/L8XzI1mHN/8jJ1cIMpu2rqTUtsMNLLZC8laMAvmu8LSVe+LsojyjdupuVeSdRXBNO5F8Uk9xC27FetZsshkt9WFFsxAIBo3vomxSy7fZEp2k8lasEkzBrftfLfon8muqgvHgnGyZL4gliImGj3h/JPDlW4Ez5hZxMdK9Tt2qFzItKEX5y+j48ePi+OJ6qKtQ8mOBfMnnX3tOCopfYezrswTFrLcHbsqxB/lRvD6b7fR3KKl4sMKm5I36CUuO2/hSvrn3ypxPAQavgsuGmRUJbJrCIRjwb6ONPn+Z8zTex8/saxwBDdhwX/+fcQsrSY+W7eREs7pceZgUzAcC45Pp+FjptL+A5Ui27xkHx/zy683GQPu3MJLz2+H90luPZDLbKadu/fR9/wtcAyX37FzL33DDVx19TFTLdERzubcYfkUl5QJafLrkOFYMPcf66VeRkmt+otM85IkRsiVnTcI9VL7ivURWBnkCC5bD3UsN5AYe64+Zgg+8k8VDcrN4+0dpOcNimPB4NzexldYBRgnlp0zGE24DMo5AWXF7MmFNOm+p4VYBORemTPemVzgSvDZBOpVXxrlP/ScqZZEIzcod4JzuUCJ4EAD49EKrpUl2uUa1YJLucBzwWgAMOPrPx0UrWAsIjGTpj8xz1RrNGhX5nggF3gqWGRCGk3i7hsWkPgSuUuDuk22b7RgCn7ltbeEXKNaMBs03N3JyoSDZ4JNuWPueFRcKGLB4jKKwyQl3pOViRaQBPytw6LBwSPv9SZzLTwRbModnfewqdaIcXcWGNVFOP3GSIBMbcKNHG6Fcb1eVmuuBZtyb817xNRqRMhre6MJFd80V4ItubZqARGTclXhWLAkc7H0dOjN9/H2tkanvZEb+GZDdt5giJsU2bE8wGl2OxJsyrU3aFVV1TQ2f6aYfsHIlluSMQYrO3cA4rgebcRlZMfyAtxKO5IctmA+CaZX8qbMMtUagYGRXXv2U+VPv4phQ7fgQRgxHhFKJnOGQe6Wbbulx/KCy9F1QyMoO38wwhbMNw+JKb1py/Y9plo1gQ8KAz+hCkaW/XH4L7O09zH4JnTfusjPHwxHVQRncOsOV9Fmzhgr0EF/oaiUZheWUCH/LJzngMJXafN3u8TxMGwZrmBkGgID7oW4Dtk5HNIla5izZ/ccCUY/MT6dWrYfRJtMIZhewSyAaOAEnZiOYdKC5hW7nzKaNaeEj9Xc79guQUPnpH/sSDAwJWMaxZKMWFH2EdfRmcanHe4FeTTpiYwLe9JTFY4FA0syZ7K9ulhZ9rEx8h+uZC1YgpDcVZrJDTDdE8qUj4UWHAB7dbHtlOQlK9dQXH3bsxS1oQUHwZSMhg9T7zU1x+n6YfnGg9my/WVowbUAydwZb99ziFgzIRZy6DrYQ8EAQtG41c8ITy7QghWjBStGC1ZMqIIxxW7vmYQi2L9MXRFTglGn4zWWmWJC1RIWTDDKYGwahNOj8YqYEoyV6Cxq+Zsf0LSCubx/B3N1UQDBkNsgg5LP60erP/yCRk14mLeH2bNxS8wIxjh0w+60jOVacecDz3KZNLGk9EzBLBJyWebaz9aL7Yhrhk42HiT3P7cqYkkw1i9MvOcp8b4VhuR2lNx6wEnBz+OBcV9rSm7ehz75vFxsQ2CNb1rX68Jf4+uGmKoiMP3vNw+ImDBllni4/FDlL+J1wewFFJ/YidZ+fipz123YSs1a8fGQvbqKCCAYoGFjybdwfWqPaQUv0e4fjH8JNr9kFa0oWyt+R6wr30opLbPrXi6IOcHAlDzaT3JNTY34if/vY8VXG76LnFwQrYKxyj2gYBBAsj2MzI1AtWAnugR3ptJVa4ScX38/HFwwsKqL8WdKRp0b0cy1iCrBLDOj3410NXelBuSMp/jmlxkSZftamJLtDd+68i2UEokGTUZUCYYM3G3FpxtyQl00aEqeMOVJ+vSLDZSCRSvRIBdElWA3QDKGSTHm4GTCVRVnjWAAyViGKnsvUpxVgqMRLVgxWrBitGDFaMGK0YIVowUrRgtWjBasGC1YMU2zjviEZY0isn78D43o8OjRWGtOAAAAAElFTkSuQmCC;" vertex="1" parent="1">
          <mxGeometry x="100" y="100" width="75" height="75" as="geometry" />
      </mxCell>
    </object><object id="pe2" label="pe2">
      <mxCell style="shape=image;imageAlign=center;imageVerticalAlign=middle;labelPosition=left;align=right;verticalLabelPosition=top;spacingLeft=0;verticalAlign=bottom;spacingTop=0;spacing=0;image=data:image/png,iVBORw0KGgoAAAANSUhEUgAAAFgAAABYCAYAAABxlTA0AAAAAXNSR0IArs4c6QAAAARnQU1BAACxjwv8YQUAAAAJcEhZcwAAFxEAABcRAcom8z8AAAikSURBVHhe7ZwJbBRVGMe3pUBrASkUlVMpV6EUQSlCCqhEjbYiIQEUETFyVEAr3hDwquCFVE2EYoTWCBTk8KgmiBfGqDEoRbkE5JByWW9UtJTC5/d/MwPD8na7OzOvu4vvS35pd3bezPS337735r039flSskijiKZZf2nBKtGCFaMFK0YLVowWrBgtWDFasGK0YMVowYrRghUTlYIbX8IX1lv+XqwRVYKb9SFfYiYlpPYlX1IP+T6xRtQIhlxfF2rf4wbasHE7jc57lF+nyfeVgYyPS+cyncWHJI4n26+uiQrBpty0jFzavfcAIU6cOEE33jY1NMnnXkoJLfrSkFH308hx0ykzeyT5knvK961rIi7YytxuOSz3oJBrxQlm+JiHapfcqCc1aXcFVR2tFuUK5y7hMh3l+9Y1ERV8WuaeLtcKSB5Rm2QW3Ljt5VT582+izKw5xbx/J/m+dU3EBFtyOXP3VBwSYhBHzSw8Wm38tCKoZC3YjwDVwosvv04LFr0tft+6fQ/d9eBs8TsCdXLA6kILtgG5cWa1UHFK7qLlq1lKGyoqXiVe7913iHz1utJtEx8TrxGoLqQNnxZsg7tQPfuNoH0HK4UMxOIV75GvQQZLuYhKSt8V2yr2/0gNL8jmbe1ofP5Msc2K2yc/Tr6G3U8dUwu2kdCVcoffLUQgFiNzIfeci1lKOhUveUdsh+DElv2N7hZnrF3yHPQSErrxxZt3e1qwDVH/duL+6gx6lbPVl8RiIdesl88Q3KiXIdLXge6Z/jy9ULRUVB3o+548phYsoSHfbTXgrznGHSAX2wIJxnuQjP2R7Xa5QAuW0BT4DegEEyzK8P7+ZYAWHCK1CQ6EFhwiWrBiIi0YjafV4Mred4IWbMLnzhkxhdp1v150JT2T/L8XzI1mHN/8jJ1cIMpu2rqTUtsMNLLZC8laMAvmu8LSVe+LsojyjdupuVeSdRXBNO5F8Uk9xC27FetZsshkt9WFFsxAIBo3vomxSy7fZEp2k8lasEkzBrftfLfon8muqgvHgnGyZL4gliImGj3h/JPDlW4Ez5hZxMdK9Tt2qFzItKEX5y+j48ePi+OJ6qKtQ8mOBfMnnX3tOCopfYezrswTFrLcHbsqxB/lRvD6b7fR3KKl4sMKm5I36CUuO2/hSvrn3ypxPAQavgsuGmRUJbJrCIRjwb6ONPn+Z8zTex8/saxwBDdhwX/+fcQsrSY+W7eREs7pceZgUzAcC45Pp+FjptL+A5Ui27xkHx/zy683GQPu3MJLz2+H90luPZDLbKadu/fR9/wtcAyX37FzL33DDVx19TFTLdERzubcYfkUl5QJafLrkOFYMPcf66VeRkmt+otM85IkRsiVnTcI9VL7ivURWBnkCC5bD3UsN5AYe64+Zgg+8k8VDcrN4+0dpOcNimPB4NzexldYBRgnlp0zGE24DMo5AWXF7MmFNOm+p4VYBORemTPemVzgSvDZBOpVXxrlP/ScqZZEIzcod4JzuUCJ4EAD49EKrpUl2uUa1YJLucBzwWgAMOPrPx0UrWAsIjGTpj8xz1RrNGhX5nggF3gqWGRCGk3i7hsWkPgSuUuDuk22b7RgCn7ltbeEXKNaMBs03N3JyoSDZ4JNuWPueFRcKGLB4jKKwyQl3pOViRaQBPytw6LBwSPv9SZzLTwRbModnfewqdaIcXcWGNVFOP3GSIBMbcKNHG6Fcb1eVmuuBZtyb817xNRqRMhre6MJFd80V4ItubZqARGTclXhWLAkc7H0dOjN9/H2tkanvZEb+GZDdt5giJsU2bE8wGl2OxJsyrU3aFVV1TQ2f6aYfsHIlluSMQYrO3cA4rgebcRlZMfyAtxKO5IctmA+CaZX8qbMMtUagYGRXXv2U+VPv4phQ7fgQRgxHhFKJnOGQe6Wbbulx/KCy9F1QyMoO38wwhbMNw+JKb1py/Y9plo1gQ8KAz+hCkaW/XH4L7O09zH4JnTfusjPHwxHVQRncOsOV9Fmzhgr0EF/oaiUZheWUCH/LJzngMJXafN3u8TxMGwZrmBkGgID7oW4Dtk5HNIla5izZ/ccCUY/MT6dWrYfRJtMIZhewSyAaOAEnZiOYdKC5hW7nzKaNaeEj9Xc79guQUPnpH/sSDAwJWMaxZKMWFH2EdfRmcanHe4FeTTpiYwLe9JTFY4FA0syZ7K9ulhZ9rEx8h+uZC1YgpDcVZrJDTDdE8qUj4UWHAB7dbHtlOQlK9dQXH3bsxS1oQUHwZSMhg9T7zU1x+n6YfnGg9my/WVowbUAydwZb99ziFgzIRZy6DrYQ8EAQtG41c8ITy7QghWjBStGC1ZMqIIxxW7vmYQi2L9MXRFTglGn4zWWmWJC1RIWTDDKYGwahNOj8YqYEoyV6Cxq+Zsf0LSCubx/B3N1UQDBkNsgg5LP60erP/yCRk14mLeH2bNxS8wIxjh0w+60jOVacecDz3KZNLGk9EzBLBJyWebaz9aL7Yhrhk42HiT3P7cqYkkw1i9MvOcp8b4VhuR2lNx6wEnBz+OBcV9rSm7ehz75vFxsQ2CNb1rX68Jf4+uGmKoiMP3vNw+ImDBllni4/FDlL+J1wewFFJ/YidZ+fipz123YSs1a8fGQvbqKCCAYoGFjybdwfWqPaQUv0e4fjH8JNr9kFa0oWyt+R6wr30opLbPrXi6IOcHAlDzaT3JNTY34if/vY8VXG76LnFwQrYKxyj2gYBBAsj2MzI1AtWAnugR3ptJVa4ScX38/HFwwsKqL8WdKRp0b0cy1iCrBLDOj3410NXelBuSMp/jmlxkSZftamJLtDd+68i2UEokGTUZUCYYM3G3FpxtyQl00aEqeMOVJ+vSLDZSCRSvRIBdElWA3QDKGSTHm4GTCVRVnjWAAyViGKnsvUpxVgqMRLVgxWrBitGDFaMGK0YIVowUrRgtWjBasGC1YMU2zjviEZY0isn78D43o8OjRWGtOAAAAAElFTkSuQmCC;" vertex="1" parent="1">
          <mxGeometry x="200.0" y="700" width="75" height="75" as="geometry" />
      </mxCell>
    </object><object id="pe3" label="pe3">
      <mxCell style="shape=image;imageAlign=center;imageVerticalAlign=middle;labelPosition=left;align=right;verticalLabelPosition=top;spacingLeft=0;verticalAlign=bottom;spacingTop=0;spacing=0;image=data:image/png,iVBORw0KGgoAAAANSUhEUgAAAFgAAABYCAYAAABxlTA0AAAAAXNSR0IArs4c6QAAAARnQU1BAACxjwv8YQUAAAAJcEhZcwAAFxEAABcRAcom8z8AAAikSURBVHhe7ZwJbBRVGMe3pUBrASkUlVMpV6EUQSlCCqhEjbYiIQEUETFyVEAr3hDwquCFVE2EYoTWCBTk8KgmiBfGqDEoRbkE5JByWW9UtJTC5/d/MwPD8na7OzOvu4vvS35pd3bezPS337735r039flSskijiKZZf2nBKtGCFaMFK0YLVowWrBgtWDFasGK0YMVowYrRghUTlYIbX8IX1lv+XqwRVYKb9SFfYiYlpPYlX1IP+T6xRtQIhlxfF2rf4wbasHE7jc57lF+nyfeVgYyPS+cyncWHJI4n26+uiQrBpty0jFzavfcAIU6cOEE33jY1NMnnXkoJLfrSkFH308hx0ykzeyT5knvK961rIi7YytxuOSz3oJBrxQlm+JiHapfcqCc1aXcFVR2tFuUK5y7hMh3l+9Y1ERV8WuaeLtcKSB5Rm2QW3Ljt5VT582+izKw5xbx/J/m+dU3EBFtyOXP3VBwSYhBHzSw8Wm38tCKoZC3YjwDVwosvv04LFr0tft+6fQ/d9eBs8TsCdXLA6kILtgG5cWa1UHFK7qLlq1lKGyoqXiVe7913iHz1utJtEx8TrxGoLqQNnxZsg7tQPfuNoH0HK4UMxOIV75GvQQZLuYhKSt8V2yr2/0gNL8jmbe1ofP5Msc2K2yc/Tr6G3U8dUwu2kdCVcoffLUQgFiNzIfeci1lKOhUveUdsh+DElv2N7hZnrF3yHPQSErrxxZt3e1qwDVH/duL+6gx6lbPVl8RiIdesl88Q3KiXIdLXge6Z/jy9ULRUVB3o+548phYsoSHfbTXgrznGHSAX2wIJxnuQjP2R7Xa5QAuW0BT4DegEEyzK8P7+ZYAWHCK1CQ6EFhwiWrBiIi0YjafV4Mred4IWbMLnzhkxhdp1v150JT2T/L8XzI1mHN/8jJ1cIMpu2rqTUtsMNLLZC8laMAvmu8LSVe+LsojyjdupuVeSdRXBNO5F8Uk9xC27FetZsshkt9WFFsxAIBo3vomxSy7fZEp2k8lasEkzBrftfLfon8muqgvHgnGyZL4gliImGj3h/JPDlW4Ez5hZxMdK9Tt2qFzItKEX5y+j48ePi+OJ6qKtQ8mOBfMnnX3tOCopfYezrswTFrLcHbsqxB/lRvD6b7fR3KKl4sMKm5I36CUuO2/hSvrn3ypxPAQavgsuGmRUJbJrCIRjwb6ONPn+Z8zTex8/saxwBDdhwX/+fcQsrSY+W7eREs7pceZgUzAcC45Pp+FjptL+A5Ui27xkHx/zy683GQPu3MJLz2+H90luPZDLbKadu/fR9/wtcAyX37FzL33DDVx19TFTLdERzubcYfkUl5QJafLrkOFYMPcf66VeRkmt+otM85IkRsiVnTcI9VL7ivURWBnkCC5bD3UsN5AYe64+Zgg+8k8VDcrN4+0dpOcNimPB4NzexldYBRgnlp0zGE24DMo5AWXF7MmFNOm+p4VYBORemTPemVzgSvDZBOpVXxrlP/ScqZZEIzcod4JzuUCJ4EAD49EKrpUl2uUa1YJLucBzwWgAMOPrPx0UrWAsIjGTpj8xz1RrNGhX5nggF3gqWGRCGk3i7hsWkPgSuUuDuk22b7RgCn7ltbeEXKNaMBs03N3JyoSDZ4JNuWPueFRcKGLB4jKKwyQl3pOViRaQBPytw6LBwSPv9SZzLTwRbModnfewqdaIcXcWGNVFOP3GSIBMbcKNHG6Fcb1eVmuuBZtyb817xNRqRMhre6MJFd80V4ItubZqARGTclXhWLAkc7H0dOjN9/H2tkanvZEb+GZDdt5giJsU2bE8wGl2OxJsyrU3aFVV1TQ2f6aYfsHIlluSMQYrO3cA4rgebcRlZMfyAtxKO5IctmA+CaZX8qbMMtUagYGRXXv2U+VPv4phQ7fgQRgxHhFKJnOGQe6Wbbulx/KCy9F1QyMoO38wwhbMNw+JKb1py/Y9plo1gQ8KAz+hCkaW/XH4L7O09zH4JnTfusjPHwxHVQRncOsOV9Fmzhgr0EF/oaiUZheWUCH/LJzngMJXafN3u8TxMGwZrmBkGgID7oW4Dtk5HNIla5izZ/ccCUY/MT6dWrYfRJtMIZhewSyAaOAEnZiOYdKC5hW7nzKaNaeEj9Xc79guQUPnpH/sSDAwJWMaxZKMWFH2EdfRmcanHe4FeTTpiYwLe9JTFY4FA0syZ7K9ulhZ9rEx8h+uZC1YgpDcVZrJDTDdE8qUj4UWHAB7dbHtlOQlK9dQXH3bsxS1oQUHwZSMhg9T7zU1x+n6YfnGg9my/WVowbUAydwZb99ziFgzIRZy6DrYQ8EAQtG41c8ITy7QghWjBStGC1ZMqIIxxW7vmYQi2L9MXRFTglGn4zWWmWJC1RIWTDDKYGwahNOj8YqYEoyV6Cxq+Zsf0LSCubx/B3N1UQDBkNsgg5LP60erP/yCRk14mLeH2bNxS8wIxjh0w+60jOVacecDz3KZNLGk9EzBLBJyWebaz9aL7Yhrhk42HiT3P7cqYkkw1i9MvOcp8b4VhuR2lNx6wEnBz+OBcV9rSm7ehz75vFxsQ2CNb1rX68Jf4+uGmKoiMP3vNw+ImDBllni4/FDlL+J1wewFFJ/YidZ+fipz123YSs1a8fGQvbqKCCAYoGFjybdwfWqPaQUv0e4fjH8JNr9kFa0oWyt+R6wr30opLbPrXi6IOcHAlDzaT3JNTY34if/vY8VXG76LnFwQrYKxyj2gYBBAsj2MzI1AtWAnugR3ptJVa4ScX38/HFwwsKqL8WdKRp0b0cy1iCrBLDOj3410NXelBuSMp/jmlxkSZftamJLtDd+68i2UEokGTUZUCYYM3G3FpxtyQl00aEqeMOVJ+vSLDZSCRSvRIBdElWA3QDKGSTHm4GTCVRVnjWAAyViGKnsvUpxVgqMRLVgxWrBitGDFaMGK0YIVowUrRgtWjBasGC1YMU2zjviEZY0isn78D43o8OjRWGtOAAAAAElFTkSuQmCC;" vertex="1" parent="1">
          <mxGeometry x="400.0" y="700" width="75" height="75" as="geometry" />
      </mxCell>
    </object><object id="br4" label="br4">
      <mxCell style="shape=image;imageAlign=center;imageVerticalAlign=middle;labelPosition=left;align=right;verticalLabelPosition=top;spacingLeft=0;verticalAlign=bottom;spacingTop=0;spacing=0;image=data:image/png,iVBORw0KGgoAAAANSUhEUgAAAFgAAABYCAYAAABxlTA0AAAAAXNSR0IArs4c6QAAAARnQU1BAACxjwv8YQUAAAAJcEhZcwAAFxEAABcRAcom8z8AAAikSURBVHhe7ZwJbBRVGMe3pUBrASkUlVMpV6EUQSlCCqhEjbYiIQEUETFyVEAr3hDwquCFVE2EYoTWCBTk8KgmiBfGqDEoRbkE5JByWW9UtJTC5/d/MwPD8na7OzOvu4vvS35pd3bezPS337735r039flSskijiKZZf2nBKtGCFaMFK0YLVowWrBgtWDFasGK0YMVowYrRghUTlYIbX8IX1lv+XqwRVYKb9SFfYiYlpPYlX1IP+T6xRtQIhlxfF2rf4wbasHE7jc57lF+nyfeVgYyPS+cyncWHJI4n26+uiQrBpty0jFzavfcAIU6cOEE33jY1NMnnXkoJLfrSkFH308hx0ykzeyT5knvK961rIi7YytxuOSz3oJBrxQlm+JiHapfcqCc1aXcFVR2tFuUK5y7hMh3l+9Y1ERV8WuaeLtcKSB5Rm2QW3Ljt5VT582+izKw5xbx/J/m+dU3EBFtyOXP3VBwSYhBHzSw8Wm38tCKoZC3YjwDVwosvv04LFr0tft+6fQ/d9eBs8TsCdXLA6kILtgG5cWa1UHFK7qLlq1lKGyoqXiVe7913iHz1utJtEx8TrxGoLqQNnxZsg7tQPfuNoH0HK4UMxOIV75GvQQZLuYhKSt8V2yr2/0gNL8jmbe1ofP5Msc2K2yc/Tr6G3U8dUwu2kdCVcoffLUQgFiNzIfeci1lKOhUveUdsh+DElv2N7hZnrF3yHPQSErrxxZt3e1qwDVH/duL+6gx6lbPVl8RiIdesl88Q3KiXIdLXge6Z/jy9ULRUVB3o+548phYsoSHfbTXgrznGHSAX2wIJxnuQjP2R7Xa5QAuW0BT4DegEEyzK8P7+ZYAWHCK1CQ6EFhwiWrBiIi0YjafV4Mred4IWbMLnzhkxhdp1v150JT2T/L8XzI1mHN/8jJ1cIMpu2rqTUtsMNLLZC8laMAvmu8LSVe+LsojyjdupuVeSdRXBNO5F8Uk9xC27FetZsshkt9WFFsxAIBo3vomxSy7fZEp2k8lasEkzBrftfLfon8muqgvHgnGyZL4gliImGj3h/JPDlW4Ez5hZxMdK9Tt2qFzItKEX5y+j48ePi+OJ6qKtQ8mOBfMnnX3tOCopfYezrswTFrLcHbsqxB/lRvD6b7fR3KKl4sMKm5I36CUuO2/hSvrn3ypxPAQavgsuGmRUJbJrCIRjwb6ONPn+Z8zTex8/saxwBDdhwX/+fcQsrSY+W7eREs7pceZgUzAcC45Pp+FjptL+A5Ui27xkHx/zy683GQPu3MJLz2+H90luPZDLbKadu/fR9/wtcAyX37FzL33DDVx19TFTLdERzubcYfkUl5QJafLrkOFYMPcf66VeRkmt+otM85IkRsiVnTcI9VL7ivURWBnkCC5bD3UsN5AYe64+Zgg+8k8VDcrN4+0dpOcNimPB4NzexldYBRgnlp0zGE24DMo5AWXF7MmFNOm+p4VYBORemTPemVzgSvDZBOpVXxrlP/ScqZZEIzcod4JzuUCJ4EAD49EKrpUl2uUa1YJLucBzwWgAMOPrPx0UrWAsIjGTpj8xz1RrNGhX5nggF3gqWGRCGk3i7hsWkPgSuUuDuk22b7RgCn7ltbeEXKNaMBs03N3JyoSDZ4JNuWPueFRcKGLB4jKKwyQl3pOViRaQBPytw6LBwSPv9SZzLTwRbModnfewqdaIcXcWGNVFOP3GSIBMbcKNHG6Fcb1eVmuuBZtyb817xNRqRMhre6MJFd80V4ItubZqARGTclXhWLAkc7H0dOjN9/H2tkanvZEb+GZDdt5giJsU2bE8wGl2OxJsyrU3aFVV1TQ2f6aYfsHIlluSMQYrO3cA4rgebcRlZMfyAtxKO5IctmA+CaZX8qbMMtUagYGRXXv2U+VPv4phQ7fgQRgxHhFKJnOGQe6Wbbulx/KCy9F1QyMoO38wwhbMNw+JKb1py/Y9plo1gQ8KAz+hCkaW/XH4L7O09zH4JnTfusjPHwxHVQRncOsOV9Fmzhgr0EF/oaiUZheWUCH/LJzngMJXafN3u8TxMGwZrmBkGgID7oW4Dtk5HNIla5izZ/ccCUY/MT6dWrYfRJtMIZhewSyAaOAEnZiOYdKC5hW7nzKaNaeEj9Xc79guQUPnpH/sSDAwJWMaxZKMWFH2EdfRmcanHe4FeTTpiYwLe9JTFY4FA0syZ7K9ulhZ9rEx8h+uZC1YgpDcVZrJDTDdE8qUj4UWHAB7dbHtlOQlK9dQXH3bsxS1oQUHwZSMhg9T7zU1x+n6YfnGg9my/WVowbUAydwZb99ziFgzIRZy6DrYQ8EAQtG41c8ITy7QghWjBStGC1ZMqIIxxW7vmYQi2L9MXRFTglGn4zWWmWJC1RIWTDDKYGwahNOj8YqYEoyV6Cxq+Zsf0LSCubx/B3N1UQDBkNsgg5LP60erP/yCRk14mLeH2bNxS8wIxjh0w+60jOVacecDz3KZNLGk9EzBLBJyWebaz9aL7Yhrhk42HiT3P7cqYkkw1i9MvOcp8b4VhuR2lNx6wEnBz+OBcV9rSm7ehz75vFxsQ2CNb1rX68Jf4+uGmKoiMP3vNw+ImDBllni4/FDlL+J1wewFFJ/YidZ+fipz123YSs1a8fGQvbqKCCAYoGFjybdwfWqPaQUv0e4fjH8JNr9kFa0oWyt+R6wr30opLbPrXi6IOcHAlDzaT3JNTY34if/vY8VXG76LnFwQrYKxyj2gYBBAsj2MzI1AtWAnugR3ptJVa4ScX38/HFwwsKqL8WdKRp0b0cy1iCrBLDOj3410NXelBuSMp/jmlxkSZftamJLtDd+68i2UEokGTUZUCYYM3G3FpxtyQl00aEqeMOVJ+vSLDZSCRSvRIBdElWA3QDKGSTHm4GTCVRVnjWAAyViGKnsvUpxVgqMRLVgxWrBitGDFaMGK0YIVowUrRgtWjBasGC1YMU2zjviEZY0isn78D43o8OjRWGtOAAAAAElFTkSuQmCC;" vertex="1" parent="1">
          <mxGeometry x="-200.0" y="300" width="75" height="75" as="geometry" />
      </mxCell>
    </object><object id="br5" label="br5">
      <mxCell style="shape=image;imageAlign=center;imageVerticalAlign=middle;labelPosition=left;align=right;verticalLabelPosition=top;spacingLeft=0;verticalAlign=bottom;spacingTop=0;spacing=0;image=data:image/png,iVBORw0KGgoAAAANSUhEUgAAAFgAAABYCAYAAABxlTA0AAAAAXNSR0IArs4c6QAAAARnQU1BAACxjwv8YQUAAAAJcEhZcwAAFxEAABcRAcom8z8AAAikSURBVHhe7ZwJbBRVGMe3pUBrASkUlVMpV6EUQSlCCqhEjbYiIQEUETFyVEAr3hDwquCFVE2EYoTWCBTk8KgmiBfGqDEoRbkE5JByWW9UtJTC5/d/MwPD8na7OzOvu4vvS35pd3bezPS337735r039flSskijiKZZf2nBKtGCFaMFK0YLVowWrBgtWDFasGK0YMVowYrRghUTlYIbX8IX1lv+XqwRVYKb9SFfYiYlpPYlX1IP+T6xRtQIhlxfF2rf4wbasHE7jc57lF+nyfeVgYyPS+cyncWHJI4n26+uiQrBpty0jFzavfcAIU6cOEE33jY1NMnnXkoJLfrSkFH308hx0ykzeyT5knvK961rIi7YytxuOSz3oJBrxQlm+JiHapfcqCc1aXcFVR2tFuUK5y7hMh3l+9Y1ERV8WuaeLtcKSB5Rm2QW3Ljt5VT582+izKw5xbx/J/m+dU3EBFtyOXP3VBwSYhBHzSw8Wm38tCKoZC3YjwDVwosvv04LFr0tft+6fQ/d9eBs8TsCdXLA6kILtgG5cWa1UHFK7qLlq1lKGyoqXiVe7913iHz1utJtEx8TrxGoLqQNnxZsg7tQPfuNoH0HK4UMxOIV75GvQQZLuYhKSt8V2yr2/0gNL8jmbe1ofP5Msc2K2yc/Tr6G3U8dUwu2kdCVcoffLUQgFiNzIfeci1lKOhUveUdsh+DElv2N7hZnrF3yHPQSErrxxZt3e1qwDVH/duL+6gx6lbPVl8RiIdesl88Q3KiXIdLXge6Z/jy9ULRUVB3o+548phYsoSHfbTXgrznGHSAX2wIJxnuQjP2R7Xa5QAuW0BT4DegEEyzK8P7+ZYAWHCK1CQ6EFhwiWrBiIi0YjafV4Mred4IWbMLnzhkxhdp1v150JT2T/L8XzI1mHN/8jJ1cIMpu2rqTUtsMNLLZC8laMAvmu8LSVe+LsojyjdupuVeSdRXBNO5F8Uk9xC27FetZsshkt9WFFsxAIBo3vomxSy7fZEp2k8lasEkzBrftfLfon8muqgvHgnGyZL4gliImGj3h/JPDlW4Ez5hZxMdK9Tt2qFzItKEX5y+j48ePi+OJ6qKtQ8mOBfMnnX3tOCopfYezrswTFrLcHbsqxB/lRvD6b7fR3KKl4sMKm5I36CUuO2/hSvrn3ypxPAQavgsuGmRUJbJrCIRjwb6ONPn+Z8zTex8/saxwBDdhwX/+fcQsrSY+W7eREs7pceZgUzAcC45Pp+FjptL+A5Ui27xkHx/zy683GQPu3MJLz2+H90luPZDLbKadu/fR9/wtcAyX37FzL33DDVx19TFTLdERzubcYfkUl5QJafLrkOFYMPcf66VeRkmt+otM85IkRsiVnTcI9VL7ivURWBnkCC5bD3UsN5AYe64+Zgg+8k8VDcrN4+0dpOcNimPB4NzexldYBRgnlp0zGE24DMo5AWXF7MmFNOm+p4VYBORemTPemVzgSvDZBOpVXxrlP/ScqZZEIzcod4JzuUCJ4EAD49EKrpUl2uUa1YJLucBzwWgAMOPrPx0UrWAsIjGTpj8xz1RrNGhX5nggF3gqWGRCGk3i7hsWkPgSuUuDuk22b7RgCn7ltbeEXKNaMBs03N3JyoSDZ4JNuWPueFRcKGLB4jKKwyQl3pOViRaQBPytw6LBwSPv9SZzLTwRbModnfewqdaIcXcWGNVFOP3GSIBMbcKNHG6Fcb1eVmuuBZtyb817xNRqRMhre6MJFd80V4ItubZqARGTclXhWLAkc7H0dOjN9/H2tkanvZEb+GZDdt5giJsU2bE8wGl2OxJsyrU3aFVV1TQ2f6aYfsHIlluSMQYrO3cA4rgebcRlZMfyAtxKO5IctmA+CaZX8qbMMtUagYGRXXv2U+VPv4phQ7fgQRgxHhFKJnOGQe6Wbbulx/KCy9F1QyMoO38wwhbMNw+JKb1py/Y9plo1gQ8KAz+hCkaW/XH4L7O09zH4JnTfusjPHwxHVQRncOsOV9Fmzhgr0EF/oaiUZheWUCH/LJzngMJXafN3u8TxMGwZrmBkGgID7oW4Dtk5HNIla5izZ/ccCUY/MT6dWrYfRJtMIZhewSyAaOAEnZiOYdKC5hW7nzKaNaeEj9Xc79guQUPnpH/sSDAwJWMaxZKMWFH2EdfRmcanHe4FeTTpiYwLe9JTFY4FA0syZ7K9ulhZ9rEx8h+uZC1YgpDcVZrJDTDdE8qUj4UWHAB7dbHtlOQlK9dQXH3bsxS1oQUHwZSMhg9T7zU1x+n6YfnGg9my/WVowbUAydwZb99ziFgzIRZy6DrYQ8EAQtG41c8ITy7QghWjBStGC1ZMqIIxxW7vmYQi2L9MXRFTglGn4zWWmWJC1RIWTDDKYGwahNOj8YqYEoyV6Cxq+Zsf0LSCubx/B3N1UQDBkNsgg5LP60erP/yCRk14mLeH2bNxS8wIxjh0w+60jOVacecDz3KZNLGk9EzBLBJyWebaz9aL7Yhrhk42HiT3P7cqYkkw1i9MvOcp8b4VhuR2lNx6wEnBz+OBcV9rSm7ehz75vFxsQ2CNb1rX68Jf4+uGmKoiMP3vNw+ImDBllni4/FDlL+J1wewFFJ/YidZ+fipz123YSs1a8fGQvbqKCCAYoGFjybdwfWqPaQUv0e4fjH8JNr9kFa0oWyt+R6wr30opLbPrXi6IOcHAlDzaT3JNTY34if/vY8VXG76LnFwQrYKxyj2gYBBAsj2MzI1AtWAnugR3ptJVa4ScX38/HFwwsKqL8WdKRp0b0cy1iCrBLDOj3410NXelBuSMp/jmlxkSZftamJLtDd+68i2UEokGTUZUCYYM3G3FpxtyQl00aEqeMOVJ+vSLDZSCRSvRIBdElWA3QDKGSTHm4GTCVRVnjWAAyViGKnsvUpxVgqMRLVgxWrBitGDFaMGK0YIVowUrRgtWjBasGC1YMU2zjviEZY0isn78D43o8OjRWGtOAAAAAElFTkSuQmCC;" vertex="1" parent="1">
          <mxGeometry x="0.0" y="500" width="75" height="75" as="geometry" />
      </mxCell>
    </object><object id="br6" label="br6">
      <mxCell style="shape=image;imageAlign=center;imageVerticalAlign=middle;labelPosition=left;align=right;verticalLabelPosition=top;spacingLeft=0;verticalAlign=bottom;spacingTop=0;spacing=0;image=data:image/png,iVBORw0KGgoAAAANSUhEUgAAAFgAAABYCAYAAABxlTA0AAAAAXNSR0IArs4c6QAAAARnQU1BAACxjwv8YQUAAAAJcEhZcwAAFxEAABcRAcom8z8AAAikSURBVHhe7ZwJbBRVGMe3pUBrASkUlVMpV6EUQSlCCqhEjbYiIQEUETFyVEAr3hDwquCFVE2EYoTWCBTk8KgmiBfGqDEoRbkE5JByWW9UtJTC5/d/MwPD8na7OzOvu4vvS35pd3bezPS337735r039flSskijiKZZf2nBKtGCFaMFK0YLVowWrBgtWDFasGK0YMVowYrRghUTlYIbX8IX1lv+XqwRVYKb9SFfYiYlpPYlX1IP+T6xRtQIhlxfF2rf4wbasHE7jc57lF+nyfeVgYyPS+cyncWHJI4n26+uiQrBpty0jFzavfcAIU6cOEE33jY1NMnnXkoJLfrSkFH308hx0ykzeyT5knvK961rIi7YytxuOSz3oJBrxQlm+JiHapfcqCc1aXcFVR2tFuUK5y7hMh3l+9Y1ERV8WuaeLtcKSB5Rm2QW3Ljt5VT582+izKw5xbx/J/m+dU3EBFtyOXP3VBwSYhBHzSw8Wm38tCKoZC3YjwDVwosvv04LFr0tft+6fQ/d9eBs8TsCdXLA6kILtgG5cWa1UHFK7qLlq1lKGyoqXiVe7913iHz1utJtEx8TrxGoLqQNnxZsg7tQPfuNoH0HK4UMxOIV75GvQQZLuYhKSt8V2yr2/0gNL8jmbe1ofP5Msc2K2yc/Tr6G3U8dUwu2kdCVcoffLUQgFiNzIfeci1lKOhUveUdsh+DElv2N7hZnrF3yHPQSErrxxZt3e1qwDVH/duL+6gx6lbPVl8RiIdesl88Q3KiXIdLXge6Z/jy9ULRUVB3o+548phYsoSHfbTXgrznGHSAX2wIJxnuQjP2R7Xa5QAuW0BT4DegEEyzK8P7+ZYAWHCK1CQ6EFhwiWrBiIi0YjafV4Mred4IWbMLnzhkxhdp1v150JT2T/L8XzI1mHN/8jJ1cIMpu2rqTUtsMNLLZC8laMAvmu8LSVe+LsojyjdupuVeSdRXBNO5F8Uk9xC27FetZsshkt9WFFsxAIBo3vomxSy7fZEp2k8lasEkzBrftfLfon8muqgvHgnGyZL4gliImGj3h/JPDlW4Ez5hZxMdK9Tt2qFzItKEX5y+j48ePi+OJ6qKtQ8mOBfMnnX3tOCopfYezrswTFrLcHbsqxB/lRvD6b7fR3KKl4sMKm5I36CUuO2/hSvrn3ypxPAQavgsuGmRUJbJrCIRjwb6ONPn+Z8zTex8/saxwBDdhwX/+fcQsrSY+W7eREs7pceZgUzAcC45Pp+FjptL+A5Ui27xkHx/zy683GQPu3MJLz2+H90luPZDLbKadu/fR9/wtcAyX37FzL33DDVx19TFTLdERzubcYfkUl5QJafLrkOFYMPcf66VeRkmt+otM85IkRsiVnTcI9VL7ivURWBnkCC5bD3UsN5AYe64+Zgg+8k8VDcrN4+0dpOcNimPB4NzexldYBRgnlp0zGE24DMo5AWXF7MmFNOm+p4VYBORemTPemVzgSvDZBOpVXxrlP/ScqZZEIzcod4JzuUCJ4EAD49EKrpUl2uUa1YJLucBzwWgAMOPrPx0UrWAsIjGTpj8xz1RrNGhX5nggF3gqWGRCGk3i7hsWkPgSuUuDuk22b7RgCn7ltbeEXKNaMBs03N3JyoSDZ4JNuWPueFRcKGLB4jKKwyQl3pOViRaQBPytw6LBwSPv9SZzLTwRbModnfewqdaIcXcWGNVFOP3GSIBMbcKNHG6Fcb1eVmuuBZtyb817xNRqRMhre6MJFd80V4ItubZqARGTclXhWLAkc7H0dOjN9/H2tkanvZEb+GZDdt5giJsU2bE8wGl2OxJsyrU3aFVV1TQ2f6aYfsHIlluSMQYrO3cA4rgebcRlZMfyAtxKO5IctmA+CaZX8qbMMtUagYGRXXv2U+VPv4phQ7fgQRgxHhFKJnOGQe6Wbbulx/KCy9F1QyMoO38wwhbMNw+JKb1py/Y9plo1gQ8KAz+hCkaW/XH4L7O09zH4JnTfusjPHwxHVQRncOsOV9Fmzhgr0EF/oaiUZheWUCH/LJzngMJXafN3u8TxMGwZrmBkGgID7oW4Dtk5HNIla5izZ/ccCUY/MT6dWrYfRJtMIZhewSyAaOAEnZiOYdKC5hW7nzKaNaeEj9Xc79guQUPnpH/sSDAwJWMaxZKMWFH2EdfRmcanHe4FeTTpiYwLe9JTFY4FA0syZ7K9ulhZ9rEx8h+uZC1YgpDcVZrJDTDdE8qUj4UWHAB7dbHtlOQlK9dQXH3bsxS1oQUHwZSMhg9T7zU1x+n6YfnGg9my/WVowbUAydwZb99ziFgzIRZy6DrYQ8EAQtG41c8ITy7QghWjBStGC1ZMqIIxxW7vmYQi2L9MXRFTglGn4zWWmWJC1RIWTDDKYGwahNOj8YqYEoyV6Cxq+Zsf0LSCubx/B3N1UQDBkNsgg5LP60erP/yCRk14mLeH2bNxS8wIxjh0w+60jOVacecDz3KZNLGk9EzBLBJyWebaz9aL7Yhrhk42HiT3P7cqYkkw1i9MvOcp8b4VhuR2lNx6wEnBz+OBcV9rSm7ehz75vFxsQ2CNb1rX68Jf4+uGmKoiMP3vNw+ImDBllni4/FDlL+J1wewFFJ/YidZ+fipz123YSs1a8fGQvbqKCCAYoGFjybdwfWqPaQUv0e4fjH8JNr9kFa0oWyt+R6wr30opLbPrXi6IOcHAlDzaT3JNTY34if/vY8VXG76LnFwQrYKxyj2gYBBAsj2MzI1AtWAnugR3ptJVa4ScX38/HFwwsKqL8WdKRp0b0cy1iCrBLDOj3410NXelBuSMp/jmlxkSZftamJLtDd+68i2UEokGTUZUCYYM3G3FpxtyQl00aEqeMOVJ+vSLDZSCRSvRIBdElWA3QDKGSTHm4GTCVRVnjWAAyViGKnsvUpxVgqMRLVgxWrBitGDFaMGK0YIVowUrRgtWjBasGC1YMU2zjviEZY0isn78D43o8OjRWGtOAAAAAElFTkSuQmCC;" vertex="1" parent="1">
          <mxGeometry x="200.0" y="500" width="75" height="75" as="geometry" />
      </mxCell>
    </object><object id="client11" label="client11">
      <mxCell style="shape=image;imageAlign=center;imageVerticalAlign=middle;labelPosition=left;align=right;verticalLabelPosition=top;spacingLeft=0;verticalAlign=bottom;spacingTop=0;spacing=0;image=data:image/png,iVBORw0KGgoAAAANSUhEUgAAAFkAAABZCAMAAABi1XidAAAAAXNSR0IArs4c6QAAAARnQU1BAACxjwv8YQUAAAHCUExURQAQNgARNgARNQAAHAAAHQAAIQAAIwAAJAAAJQAAJgAAJwABJgABJwACKAADKQAEKgAFKwAGLAAHLAAHLQAILAAILQAILgAJLgAKLwALMAAMMAAMMQANMQANMgAOMgAOMwAPMwAPNAAQNAARNQASNQASNgILLwQOMgUWOQgTNwgYOwkVOQkZPAwcPgwcPw0dPw4eQA8aPA8cPg8fQRwrSx0sTB4pSR4tTCEwTyMyUSMzUiQzUiU0UyY1Uyk0Uis5Vy07WTA7WDA+XDRBXjU/XDdGYT1LZkBJZUBKZUNPaUdSbEdUbklSbEtXcExWb05ac1NedlVgeFljel5pgF9mfl9qgWBrgmZwhmxziHF6jnJ8kHN8kHR9kXV+knV/knZ/k3eAlHh/kniBlHiClHl/knuAk4CJmoaNnoePoImRoYuTo5GZqJSaqZacq5eerJeerZicq5ierZmdrJqfrpqhr6OntKmsua+1wLC0wLW6xL7BysLFztHU2tHU29TX3d/h5t/i5uLl6Obo6+fo7Ofp7Ojp7Orr7urs7+zt8PHy9PT19/X29/b29/b2+Pb3+Pf4+fj5+vn6+vv8/P3+/v7+/v////GBh4cAAAADdFJOU+jz9a/B8SsAAAAJcEhZcwAAFxEAABcRAcom8z8AAAImSURBVGhD7dj3UxNBFMDxRMDLYnJJFIgRiHBrLNiw994LKjYExV6x9441YgFr3v/rJfcu827XC7O5yy/Ofn/Km8x95mazk7m9CK9TUS2TtEzTMk3LtP9EtrIZ9bIWXl1JlhOpFatWKtebNPF6N1HONR98/mli/Jta4xOFZ3tYFxpOgtxtXoNauxD3rIggswGAn48vD59Ta/jKkz8A/dNQKeeVs8s/w9jOJiOmmtG09wu8XdCJTimvHD8MMNCIg1qNFwF201/RKxtDUNyQxkGuIyPtrUrJ7QAnGA6lBPmMLc/AQSyfmb8mMxsHqfQWgJNV5NNQ3Ognz1z96sftuX53nd5a/Z6rycYle2ut9/s2iGzuB3izrB0nsSAyb+s7v7Z1Dg5igWRuxtry+FEqmFwtLdO0TNMyTcs0LdO0TNMyTcs0LdMmk+1n/nU1ypM88w9CcVMKB7XMHQDH/OXEAYCzDf7HHP+6Gq4D7EriVMordyx8B18PMYMpFjPiR3/B6Dx6PvLKnB2xzyIv7t29r9adBy/t6/YlUCknyJyd+l06Q9fQ9+N0lWXZYtsejn4ofFSr8P71rc1eWJI5TzVbS5aqtribpYUjjCxznpulXLt8tv2XHE71l/MpfFMRvOnOgrtya//IjXAa6Wspi65sPMVtGbxHU8uiK8dvjoXVVed1kitbi3rDqsf5R3Nl3pkNq5wDVuTQ0zJNyzQt07RMq588JRKtT9HIXyTFPzou9sSWAAAAAElFTkSuQmCC;" vertex="1" parent="1">
          <mxGeometry x="0.0" y="300" width="75" height="75" as="geometry" />
      </mxCell>
    </object><object id="client231" label="client231">
      <mxCell style="shape=image;imageAlign=center;imageVerticalAlign=middle;labelPosition=left;align=right;verticalLabelPosition=top;spacingLeft=0;verticalAlign=bottom;spacingTop=0;spacing=0;image=data:image/png,iVBORw0KGgoAAAANSUhEUgAAAFkAAABZCAMAAABi1XidAAAAAXNSR0IArs4c6QAAAARnQU1BAACxjwv8YQUAAAHCUExURQAQNgARNgARNQAAHAAAHQAAIQAAIwAAJAAAJQAAJgAAJwABJgABJwACKAADKQAEKgAFKwAGLAAHLAAHLQAILAAILQAILgAJLgAKLwALMAAMMAAMMQANMQANMgAOMgAOMwAPMwAPNAAQNAARNQASNQASNgILLwQOMgUWOQgTNwgYOwkVOQkZPAwcPgwcPw0dPw4eQA8aPA8cPg8fQRwrSx0sTB4pSR4tTCEwTyMyUSMzUiQzUiU0UyY1Uyk0Uis5Vy07WTA7WDA+XDRBXjU/XDdGYT1LZkBJZUBKZUNPaUdSbEdUbklSbEtXcExWb05ac1NedlVgeFljel5pgF9mfl9qgWBrgmZwhmxziHF6jnJ8kHN8kHR9kXV+knV/knZ/k3eAlHh/kniBlHiClHl/knuAk4CJmoaNnoePoImRoYuTo5GZqJSaqZacq5eerJeerZicq5ierZmdrJqfrpqhr6OntKmsua+1wLC0wLW6xL7BysLFztHU2tHU29TX3d/h5t/i5uLl6Obo6+fo7Ofp7Ojp7Orr7urs7+zt8PHy9PT19/X29/b29/b2+Pb3+Pf4+fj5+vn6+vv8/P3+/v7+/v////GBh4cAAAADdFJOU+jz9a/B8SsAAAAJcEhZcwAAFxEAABcRAcom8z8AAAImSURBVGhD7dj3UxNBFMDxRMDLYnJJFIgRiHBrLNiw994LKjYExV6x9441YgFr3v/rJfcu827XC7O5yy/Ofn/Km8x95mazk7m9CK9TUS2TtEzTMk3LtP9EtrIZ9bIWXl1JlhOpFatWKtebNPF6N1HONR98/mli/Jta4xOFZ3tYFxpOgtxtXoNauxD3rIggswGAn48vD59Ta/jKkz8A/dNQKeeVs8s/w9jOJiOmmtG09wu8XdCJTimvHD8MMNCIg1qNFwF201/RKxtDUNyQxkGuIyPtrUrJ7QAnGA6lBPmMLc/AQSyfmb8mMxsHqfQWgJNV5NNQ3Ognz1z96sftuX53nd5a/Z6rycYle2ut9/s2iGzuB3izrB0nsSAyb+s7v7Z1Dg5igWRuxtry+FEqmFwtLdO0TNMyTcs0LdO0TNMyTcs0LdMmk+1n/nU1ypM88w9CcVMKB7XMHQDH/OXEAYCzDf7HHP+6Gq4D7EriVMordyx8B18PMYMpFjPiR3/B6Dx6PvLKnB2xzyIv7t29r9adBy/t6/YlUCknyJyd+l06Q9fQ9+N0lWXZYtsejn4ofFSr8P71rc1eWJI5TzVbS5aqtribpYUjjCxznpulXLt8tv2XHE71l/MpfFMRvOnOgrtya//IjXAa6Wspi65sPMVtGbxHU8uiK8dvjoXVVed1kitbi3rDqsf5R3Nl3pkNq5wDVuTQ0zJNyzQt07RMq588JRKtT9HIXyTFPzou9sSWAAAAAElFTkSuQmCC;" vertex="1" parent="1">
          <mxGeometry x="0.0" y="900" width="75" height="75" as="geometry" />
      </mxCell>
    </object><object id="client12" label="client12">
      <mxCell style="shape=image;imageAlign=center;imageVerticalAlign=middle;labelPosition=left;align=right;verticalLabelPosition=top;spacingLeft=0;verticalAlign=bottom;spacingTop=0;spacing=0;image=data:image/png,iVBORw0KGgoAAAANSUhEUgAAAFkAAABZCAMAAABi1XidAAAAAXNSR0IArs4c6QAAAARnQU1BAACxjwv8YQUAAAHCUExURQAQNgARNgARNQAAHAAAHQAAIQAAIwAAJAAAJQAAJgAAJwABJgABJwACKAADKQAEKgAFKwAGLAAHLAAHLQAILAAILQAILgAJLgAKLwALMAAMMAAMMQANMQANMgAOMgAOMwAPMwAPNAAQNAARNQASNQASNgILLwQOMgUWOQgTNwgYOwkVOQkZPAwcPgwcPw0dPw4eQA8aPA8cPg8fQRwrSx0sTB4pSR4tTCEwTyMyUSMzUiQzUiU0UyY1Uyk0Uis5Vy07WTA7WDA+XDRBXjU/XDdGYT1LZkBJZUBKZUNPaUdSbEdUbklSbEtXcExWb05ac1NedlVgeFljel5pgF9mfl9qgWBrgmZwhmxziHF6jnJ8kHN8kHR9kXV+knV/knZ/k3eAlHh/kniBlHiClHl/knuAk4CJmoaNnoePoImRoYuTo5GZqJSaqZacq5eerJeerZicq5ierZmdrJqfrpqhr6OntKmsua+1wLC0wLW6xL7BysLFztHU2tHU29TX3d/h5t/i5uLl6Obo6+fo7Ofp7Ojp7Orr7urs7+zt8PHy9PT19/X29/b29/b2+Pb3+Pf4+fj5+vn6+vv8/P3+/v7+/v////GBh4cAAAADdFJOU+jz9a/B8SsAAAAJcEhZcwAAFxEAABcRAcom8z8AAAImSURBVGhD7dj3UxNBFMDxRMDLYnJJFIgRiHBrLNiw994LKjYExV6x9441YgFr3v/rJfcu827XC7O5yy/Ofn/Km8x95mazk7m9CK9TUS2TtEzTMk3LtP9EtrIZ9bIWXl1JlhOpFatWKtebNPF6N1HONR98/mli/Jta4xOFZ3tYFxpOgtxtXoNauxD3rIggswGAn48vD59Ta/jKkz8A/dNQKeeVs8s/w9jOJiOmmtG09wu8XdCJTimvHD8MMNCIg1qNFwF201/RKxtDUNyQxkGuIyPtrUrJ7QAnGA6lBPmMLc/AQSyfmb8mMxsHqfQWgJNV5NNQ3Ognz1z96sftuX53nd5a/Z6rycYle2ut9/s2iGzuB3izrB0nsSAyb+s7v7Z1Dg5igWRuxtry+FEqmFwtLdO0TNMyTcs0LdO0TNMyTcs0LdMmk+1n/nU1ypM88w9CcVMKB7XMHQDH/OXEAYCzDf7HHP+6Gq4D7EriVMordyx8B18PMYMpFjPiR3/B6Dx6PvLKnB2xzyIv7t29r9adBy/t6/YlUCknyJyd+l06Q9fQ9+N0lWXZYtsejn4ofFSr8P71rc1eWJI5TzVbS5aqtribpYUjjCxznpulXLt8tv2XHE71l/MpfFMRvOnOgrtya//IjXAa6Wspi65sPMVtGbxHU8uiK8dvjoXVVed1kitbi3rDqsf5R3Nl3pkNq5wDVuTQ0zJNyzQt07RMq588JRKtT9HIXyTFPzou9sSWAAAAAElFTkSuQmCC;" vertex="1" parent="1">
          <mxGeometry x="200.0" y="300" width="75" height="75" as="geometry" />
      </mxCell>
    </object><object id="client232" label="client232">
      <mxCell style="shape=image;imageAlign=center;imageVerticalAlign=middle;labelPosition=left;align=right;verticalLabelPosition=top;spacingLeft=0;verticalAlign=bottom;spacingTop=0;spacing=0;image=data:image/png,iVBORw0KGgoAAAANSUhEUgAAAFkAAABZCAMAAABi1XidAAAAAXNSR0IArs4c6QAAAARnQU1BAACxjwv8YQUAAAHCUExURQAQNgARNgARNQAAHAAAHQAAIQAAIwAAJAAAJQAAJgAAJwABJgABJwACKAADKQAEKgAFKwAGLAAHLAAHLQAILAAILQAILgAJLgAKLwALMAAMMAAMMQANMQANMgAOMgAOMwAPMwAPNAAQNAARNQASNQASNgILLwQOMgUWOQgTNwgYOwkVOQkZPAwcPgwcPw0dPw4eQA8aPA8cPg8fQRwrSx0sTB4pSR4tTCEwTyMyUSMzUiQzUiU0UyY1Uyk0Uis5Vy07WTA7WDA+XDRBXjU/XDdGYT1LZkBJZUBKZUNPaUdSbEdUbklSbEtXcExWb05ac1NedlVgeFljel5pgF9mfl9qgWBrgmZwhmxziHF6jnJ8kHN8kHR9kXV+knV/knZ/k3eAlHh/kniBlHiClHl/knuAk4CJmoaNnoePoImRoYuTo5GZqJSaqZacq5eerJeerZicq5ierZmdrJqfrpqhr6OntKmsua+1wLC0wLW6xL7BysLFztHU2tHU29TX3d/h5t/i5uLl6Obo6+fo7Ofp7Ojp7Orr7urs7+zt8PHy9PT19/X29/b29/b2+Pb3+Pf4+fj5+vn6+vv8/P3+/v7+/v////GBh4cAAAADdFJOU+jz9a/B8SsAAAAJcEhZcwAAFxEAABcRAcom8z8AAAImSURBVGhD7dj3UxNBFMDxRMDLYnJJFIgRiHBrLNiw994LKjYExV6x9441YgFr3v/rJfcu827XC7O5yy/Ofn/Km8x95mazk7m9CK9TUS2TtEzTMk3LtP9EtrIZ9bIWXl1JlhOpFatWKtebNPF6N1HONR98/mli/Jta4xOFZ3tYFxpOgtxtXoNauxD3rIggswGAn48vD59Ta/jKkz8A/dNQKeeVs8s/w9jOJiOmmtG09wu8XdCJTimvHD8MMNCIg1qNFwF201/RKxtDUNyQxkGuIyPtrUrJ7QAnGA6lBPmMLc/AQSyfmb8mMxsHqfQWgJNV5NNQ3Ognz1z96sftuX53nd5a/Z6rycYle2ut9/s2iGzuB3izrB0nsSAyb+s7v7Z1Dg5igWRuxtry+FEqmFwtLdO0TNMyTcs0LdO0TNMyTcs0LdMmk+1n/nU1ypM88w9CcVMKB7XMHQDH/OXEAYCzDf7HHP+6Gq4D7EriVMordyx8B18PMYMpFjPiR3/B6Dx6PvLKnB2xzyIv7t29r9adBy/t6/YlUCknyJyd+l06Q9fQ9+N0lWXZYtsejn4ofFSr8P71rc1eWJI5TzVbS5aqtribpYUjjCxznpulXLt8tv2XHE71l/MpfFMRvOnOgrtya//IjXAa6Wspi65sPMVtGbxHU8uiK8dvjoXVVed1kitbi3rDqsf5R3Nl3pkNq5wDVuTQ0zJNyzQt07RMq588JRKtT9HIXyTFPzou9sSWAAAAAElFTkSuQmCC;" vertex="1" parent="1">
          <mxGeometry x="200.0" y="900" width="75" height="75" as="geometry" />
      </mxCell>
    </object><object id="client13" label="client13">
      <mxCell style="shape=image;imageAlign=center;imageVerticalAlign=middle;labelPosition=left;align=right;verticalLabelPosition=top;spacingLeft=0;verticalAlign=bottom;spacingTop=0;spacing=0;image=data:image/png,iVBORw0KGgoAAAANSUhEUgAAAFkAAABZCAMAAABi1XidAAAAAXNSR0IArs4c6QAAAARnQU1BAACxjwv8YQUAAAHCUExURQAQNgARNgARNQAAHAAAHQAAIQAAIwAAJAAAJQAAJgAAJwABJgABJwACKAADKQAEKgAFKwAGLAAHLAAHLQAILAAILQAILgAJLgAKLwALMAAMMAAMMQANMQANMgAOMgAOMwAPMwAPNAAQNAARNQASNQASNgILLwQOMgUWOQgTNwgYOwkVOQkZPAwcPgwcPw0dPw4eQA8aPA8cPg8fQRwrSx0sTB4pSR4tTCEwTyMyUSMzUiQzUiU0UyY1Uyk0Uis5Vy07WTA7WDA+XDRBXjU/XDdGYT1LZkBJZUBKZUNPaUdSbEdUbklSbEtXcExWb05ac1NedlVgeFljel5pgF9mfl9qgWBrgmZwhmxziHF6jnJ8kHN8kHR9kXV+knV/knZ/k3eAlHh/kniBlHiClHl/knuAk4CJmoaNnoePoImRoYuTo5GZqJSaqZacq5eerJeerZicq5ierZmdrJqfrpqhr6OntKmsua+1wLC0wLW6xL7BysLFztHU2tHU29TX3d/h5t/i5uLl6Obo6+fo7Ofp7Ojp7Orr7urs7+zt8PHy9PT19/X29/b29/b2+Pb3+Pf4+fj5+vn6+vv8/P3+/v7+/v////GBh4cAAAADdFJOU+jz9a/B8SsAAAAJcEhZcwAAFxEAABcRAcom8z8AAAImSURBVGhD7dj3UxNBFMDxRMDLYnJJFIgRiHBrLNiw994LKjYExV6x9441YgFr3v/rJfcu827XC7O5yy/Ofn/Km8x95mazk7m9CK9TUS2TtEzTMk3LtP9EtrIZ9bIWXl1JlhOpFatWKtebNPF6N1HONR98/mli/Jta4xOFZ3tYFxpOgtxtXoNauxD3rIggswGAn48vD59Ta/jKkz8A/dNQKeeVs8s/w9jOJiOmmtG09wu8XdCJTimvHD8MMNCIg1qNFwF201/RKxtDUNyQxkGuIyPtrUrJ7QAnGA6lBPmMLc/AQSyfmb8mMxsHqfQWgJNV5NNQ3Ognz1z96sftuX53nd5a/Z6rycYle2ut9/s2iGzuB3izrB0nsSAyb+s7v7Z1Dg5igWRuxtry+FEqmFwtLdO0TNMyTcs0LdO0TNMyTcs0LdMmk+1n/nU1ypM88w9CcVMKB7XMHQDH/OXEAYCzDf7HHP+6Gq4D7EriVMordyx8B18PMYMpFjPiR3/B6Dx6PvLKnB2xzyIv7t29r9adBy/t6/YlUCknyJyd+l06Q9fQ9+N0lWXZYtsejn4ofFSr8P71rc1eWJI5TzVbS5aqtribpYUjjCxznpulXLt8tv2XHE71l/MpfFMRvOnOgrtya//IjXAa6Wspi65sPMVtGbxHU8uiK8dvjoXVVed1kitbi3rDqsf5R3Nl3pkNq5wDVuTQ0zJNyzQt07RMq588JRKtT9HIXyTFPzou9sSWAAAAAElFTkSuQmCC;" vertex="1" parent="1">
          <mxGeometry x="400.0" y="300" width="75" height="75" as="geometry" />
      </mxCell>
    </object><object id="client21" label="client21">
      <mxCell style="shape=image;imageAlign=center;imageVerticalAlign=middle;labelPosition=left;align=right;verticalLabelPosition=top;spacingLeft=0;verticalAlign=bottom;spacingTop=0;spacing=0;image=data:image/png,iVBORw0KGgoAAAANSUhEUgAAAFkAAABZCAMAAABi1XidAAAAAXNSR0IArs4c6QAAAARnQU1BAACxjwv8YQUAAAHCUExURQAQNgARNgARNQAAHAAAHQAAIQAAIwAAJAAAJQAAJgAAJwABJgABJwACKAADKQAEKgAFKwAGLAAHLAAHLQAILAAILQAILgAJLgAKLwALMAAMMAAMMQANMQANMgAOMgAOMwAPMwAPNAAQNAARNQASNQASNgILLwQOMgUWOQgTNwgYOwkVOQkZPAwcPgwcPw0dPw4eQA8aPA8cPg8fQRwrSx0sTB4pSR4tTCEwTyMyUSMzUiQzUiU0UyY1Uyk0Uis5Vy07WTA7WDA+XDRBXjU/XDdGYT1LZkBJZUBKZUNPaUdSbEdUbklSbEtXcExWb05ac1NedlVgeFljel5pgF9mfl9qgWBrgmZwhmxziHF6jnJ8kHN8kHR9kXV+knV/knZ/k3eAlHh/kniBlHiClHl/knuAk4CJmoaNnoePoImRoYuTo5GZqJSaqZacq5eerJeerZicq5ierZmdrJqfrpqhr6OntKmsua+1wLC0wLW6xL7BysLFztHU2tHU29TX3d/h5t/i5uLl6Obo6+fo7Ofp7Ojp7Orr7urs7+zt8PHy9PT19/X29/b29/b2+Pb3+Pf4+fj5+vn6+vv8/P3+/v7+/v////GBh4cAAAADdFJOU+jz9a/B8SsAAAAJcEhZcwAAFxEAABcRAcom8z8AAAImSURBVGhD7dj3UxNBFMDxRMDLYnJJFIgRiHBrLNiw994LKjYExV6x9441YgFr3v/rJfcu827XC7O5yy/Ofn/Km8x95mazk7m9CK9TUS2TtEzTMk3LtP9EtrIZ9bIWXl1JlhOpFatWKtebNPF6N1HONR98/mli/Jta4xOFZ3tYFxpOgtxtXoNauxD3rIggswGAn48vD59Ta/jKkz8A/dNQKeeVs8s/w9jOJiOmmtG09wu8XdCJTimvHD8MMNCIg1qNFwF201/RKxtDUNyQxkGuIyPtrUrJ7QAnGA6lBPmMLc/AQSyfmb8mMxsHqfQWgJNV5NNQ3Ognz1z96sftuX53nd5a/Z6rycYle2ut9/s2iGzuB3izrB0nsSAyb+s7v7Z1Dg5igWRuxtry+FEqmFwtLdO0TNMyTcs0LdO0TNMyTcs0LdMmk+1n/nU1ypM88w9CcVMKB7XMHQDH/OXEAYCzDf7HHP+6Gq4D7EriVMordyx8B18PMYMpFjPiR3/B6Dx6PvLKnB2xzyIv7t29r9adBy/t6/YlUCknyJyd+l06Q9fQ9+N0lWXZYtsejn4ofFSr8P71rc1eWJI5TzVbS5aqtribpYUjjCxznpulXLt8tv2XHE71l/MpfFMRvOnOgrtya//IjXAa6Wspi65sPMVtGbxHU8uiK8dvjoXVVed1kitbi3rDqsf5R3Nl3pkNq5wDVuTQ0zJNyzQt07RMq588JRKtT9HIXyTFPzou9sSWAAAAAElFTkSuQmCC;" vertex="1" parent="1">
          <mxGeometry x="-200.0" y="900" width="75" height="75" as="geometry" />
      </mxCell>
    </object><object id="client31" label="client31">
      <mxCell style="shape=image;imageAlign=center;imageVerticalAlign=middle;labelPosition=left;align=right;verticalLabelPosition=top;spacingLeft=0;verticalAlign=bottom;spacingTop=0;spacing=0;image=data:image/png,iVBORw0KGgoAAAANSUhEUgAAAFkAAABZCAMAAABi1XidAAAAAXNSR0IArs4c6QAAAARnQU1BAACxjwv8YQUAAAHCUExURQAQNgARNgARNQAAHAAAHQAAIQAAIwAAJAAAJQAAJgAAJwABJgABJwACKAADKQAEKgAFKwAGLAAHLAAHLQAILAAILQAILgAJLgAKLwALMAAMMAAMMQANMQANMgAOMgAOMwAPMwAPNAAQNAARNQASNQASNgILLwQOMgUWOQgTNwgYOwkVOQkZPAwcPgwcPw0dPw4eQA8aPA8cPg8fQRwrSx0sTB4pSR4tTCEwTyMyUSMzUiQzUiU0UyY1Uyk0Uis5Vy07WTA7WDA+XDRBXjU/XDdGYT1LZkBJZUBKZUNPaUdSbEdUbklSbEtXcExWb05ac1NedlVgeFljel5pgF9mfl9qgWBrgmZwhmxziHF6jnJ8kHN8kHR9kXV+knV/knZ/k3eAlHh/kniBlHiClHl/knuAk4CJmoaNnoePoImRoYuTo5GZqJSaqZacq5eerJeerZicq5ierZmdrJqfrpqhr6OntKmsua+1wLC0wLW6xL7BysLFztHU2tHU29TX3d/h5t/i5uLl6Obo6+fo7Ofp7Ojp7Orr7urs7+zt8PHy9PT19/X29/b29/b2+Pb3+Pf4+fj5+vn6+vv8/P3+/v7+/v////GBh4cAAAADdFJOU+jz9a/B8SsAAAAJcEhZcwAAFxEAABcRAcom8z8AAAImSURBVGhD7dj3UxNBFMDxRMDLYnJJFIgRiHBrLNiw994LKjYExV6x9441YgFr3v/rJfcu827XC7O5yy/Ofn/Km8x95mazk7m9CK9TUS2TtEzTMk3LtP9EtrIZ9bIWXl1JlhOpFatWKtebNPF6N1HONR98/mli/Jta4xOFZ3tYFxpOgtxtXoNauxD3rIggswGAn48vD59Ta/jKkz8A/dNQKeeVs8s/w9jOJiOmmtG09wu8XdCJTimvHD8MMNCIg1qNFwF201/RKxtDUNyQxkGuIyPtrUrJ7QAnGA6lBPmMLc/AQSyfmb8mMxsHqfQWgJNV5NNQ3Ognz1z96sftuX53nd5a/Z6rycYle2ut9/s2iGzuB3izrB0nsSAyb+s7v7Z1Dg5igWRuxtry+FEqmFwtLdO0TNMyTcs0LdO0TNMyTcs0LdMmk+1n/nU1ypM88w9CcVMKB7XMHQDH/OXEAYCzDf7HHP+6Gq4D7EriVMordyx8B18PMYMpFjPiR3/B6Dx6PvLKnB2xzyIv7t29r9adBy/t6/YlUCknyJyd+l06Q9fQ9+N0lWXZYtsejn4ofFSr8P71rc1eWJI5TzVbS5aqtribpYUjjCxznpulXLt8tv2XHE71l/MpfFMRvOnOgrtya//IjXAa6Wspi65sPMVtGbxHU8uiK8dvjoXVVed1kitbi3rDqsf5R3Nl3pkNq5wDVuTQ0zJNyzQt07RMq588JRKtT9HIXyTFPzou9sSWAAAAAElFTkSuQmCC;" vertex="1" parent="1">
          <mxGeometry x="400.0" y="900" width="75" height="75" as="geometry" />
      </mxCell>
    </object><object id="client61" label="client61">
      <mxCell style="shape=image;imageAlign=center;imageVerticalAlign=middle;labelPosition=left;align=right;verticalLabelPosition=top;spacingLeft=0;verticalAlign=bottom;spacingTop=0;spacing=0;image=data:image/png,iVBORw0KGgoAAAANSUhEUgAAAFkAAABZCAMAAABi1XidAAAAAXNSR0IArs4c6QAAAARnQU1BAACxjwv8YQUAAAHCUExURQAQNgARNgARNQAAHAAAHQAAIQAAIwAAJAAAJQAAJgAAJwABJgABJwACKAADKQAEKgAFKwAGLAAHLAAHLQAILAAILQAILgAJLgAKLwALMAAMMAAMMQANMQANMgAOMgAOMwAPMwAPNAAQNAARNQASNQASNgILLwQOMgUWOQgTNwgYOwkVOQkZPAwcPgwcPw0dPw4eQA8aPA8cPg8fQRwrSx0sTB4pSR4tTCEwTyMyUSMzUiQzUiU0UyY1Uyk0Uis5Vy07WTA7WDA+XDRBXjU/XDdGYT1LZkBJZUBKZUNPaUdSbEdUbklSbEtXcExWb05ac1NedlVgeFljel5pgF9mfl9qgWBrgmZwhmxziHF6jnJ8kHN8kHR9kXV+knV/knZ/k3eAlHh/kniBlHiClHl/knuAk4CJmoaNnoePoImRoYuTo5GZqJSaqZacq5eerJeerZicq5ierZmdrJqfrpqhr6OntKmsua+1wLC0wLW6xL7BysLFztHU2tHU29TX3d/h5t/i5uLl6Obo6+fo7Ofp7Ojp7Orr7urs7+zt8PHy9PT19/X29/b29/b2+Pb3+Pf4+fj5+vn6+vv8/P3+/v7+/v////GBh4cAAAADdFJOU+jz9a/B8SsAAAAJcEhZcwAAFxEAABcRAcom8z8AAAImSURBVGhD7dj3UxNBFMDxRMDLYnJJFIgRiHBrLNiw994LKjYExV6x9441YgFr3v/rJfcu827XC7O5yy/Ofn/Km8x95mazk7m9CK9TUS2TtEzTMk3LtP9EtrIZ9bIWXl1JlhOpFatWKtebNPF6N1HONR98/mli/Jta4xOFZ3tYFxpOgtxtXoNauxD3rIggswGAn48vD59Ta/jKkz8A/dNQKeeVs8s/w9jOJiOmmtG09wu8XdCJTimvHD8MMNCIg1qNFwF201/RKxtDUNyQxkGuIyPtrUrJ7QAnGA6lBPmMLc/AQSyfmb8mMxsHqfQWgJNV5NNQ3Ognz1z96sftuX53nd5a/Z6rycYle2ut9/s2iGzuB3izrB0nsSAyb+s7v7Z1Dg5igWRuxtry+FEqmFwtLdO0TNMyTcs0LdO0TNMyTcs0LdMmk+1n/nU1ypM88w9CcVMKB7XMHQDH/OXEAYCzDf7HHP+6Gq4D7EriVMordyx8B18PMYMpFjPiR3/B6Dx6PvLKnB2xzyIv7t29r9adBy/t6/YlUCknyJyd+l06Q9fQ9+N0lWXZYtsejn4ofFSr8P71rc1eWJI5TzVbS5aqtribpYUjjCxznpulXLt8tv2XHE71l/MpfFMRvOnOgrtya//IjXAa6Wspi65sPMVtGbxHU8uiK8dvjoXVVed1kitbi3rDqsf5R3Nl3pkNq5wDVuTQ0zJNyzQt07RMq588JRKtT9HIXyTFPzou9sSWAAAAAElFTkSuQmCC;" vertex="1" parent="1">
          <mxGeometry x="-200.0" y="700" width="75" height="75" as="geometry" />
      </mxCell>
    </object><object id="client62" label="client62">
      <mxCell style="shape=image;imageAlign=center;imageVerticalAlign=middle;labelPosition=left;align=right;verticalLabelPosition=top;spacingLeft=0;verticalAlign=bottom;spacingTop=0;spacing=0;image=data:image/png,iVBORw0KGgoAAAANSUhEUgAAAFkAAABZCAMAAABi1XidAAAAAXNSR0IArs4c6QAAAARnQU1BAACxjwv8YQUAAAHCUExURQAQNgARNgARNQAAHAAAHQAAIQAAIwAAJAAAJQAAJgAAJwABJgABJwACKAADKQAEKgAFKwAGLAAHLAAHLQAILAAILQAILgAJLgAKLwALMAAMMAAMMQANMQANMgAOMgAOMwAPMwAPNAAQNAARNQASNQASNgILLwQOMgUWOQgTNwgYOwkVOQkZPAwcPgwcPw0dPw4eQA8aPA8cPg8fQRwrSx0sTB4pSR4tTCEwTyMyUSMzUiQzUiU0UyY1Uyk0Uis5Vy07WTA7WDA+XDRBXjU/XDdGYT1LZkBJZUBKZUNPaUdSbEdUbklSbEtXcExWb05ac1NedlVgeFljel5pgF9mfl9qgWBrgmZwhmxziHF6jnJ8kHN8kHR9kXV+knV/knZ/k3eAlHh/kniBlHiClHl/knuAk4CJmoaNnoePoImRoYuTo5GZqJSaqZacq5eerJeerZicq5ierZmdrJqfrpqhr6OntKmsua+1wLC0wLW6xL7BysLFztHU2tHU29TX3d/h5t/i5uLl6Obo6+fo7Ofp7Ojp7Orr7urs7+zt8PHy9PT19/X29/b29/b2+Pb3+Pf4+fj5+vn6+vv8/P3+/v7+/v////GBh4cAAAADdFJOU+jz9a/B8SsAAAAJcEhZcwAAFxEAABcRAcom8z8AAAImSURBVGhD7dj3UxNBFMDxRMDLYnJJFIgRiHBrLNiw994LKjYExV6x9441YgFr3v/rJfcu827XC7O5yy/Ofn/Km8x95mazk7m9CK9TUS2TtEzTMk3LtP9EtrIZ9bIWXl1JlhOpFatWKtebNPF6N1HONR98/mli/Jta4xOFZ3tYFxpOgtxtXoNauxD3rIggswGAn48vD59Ta/jKkz8A/dNQKeeVs8s/w9jOJiOmmtG09wu8XdCJTimvHD8MMNCIg1qNFwF201/RKxtDUNyQxkGuIyPtrUrJ7QAnGA6lBPmMLc/AQSyfmb8mMxsHqfQWgJNV5NNQ3Ognz1z96sftuX53nd5a/Z6rycYle2ut9/s2iGzuB3izrB0nsSAyb+s7v7Z1Dg5igWRuxtry+FEqmFwtLdO0TNMyTcs0LdO0TNMyTcs0LdMmk+1n/nU1ypM88w9CcVMKB7XMHQDH/OXEAYCzDf7HHP+6Gq4D7EriVMordyx8B18PMYMpFjPiR3/B6Dx6PvLKnB2xzyIv7t29r9adBy/t6/YlUCknyJyd+l06Q9fQ9+N0lWXZYtsejn4ofFSr8P71rc1eWJI5TzVbS5aqtribpYUjjCxznpulXLt8tv2XHE71l/MpfFMRvOnOgrtya//IjXAa6Wspi65sPMVtGbxHU8uiK8dvjoXVVed1kitbi3rDqsf5R3Nl3pkNq5wDVuTQ0zJNyzQt07RMq588JRKtT9HIXyTFPzou9sSWAAAAAElFTkSuQmCC;" vertex="1" parent="1">
          <mxGeometry x="0.0" y="700" width="75" height="75" as="geometry" />
      </mxCell>
    </object><mxCell id="506d687b06324468074e1eed7d080a78-src" value="e1-1" style="edgeLabel;html=1;align=center;verticalAlign=middle;resizable=0;points=[];;" vertex="1" connectable="0" parent="506d687b06324468074e1eed7d080a78">
      <mxGeometry x="-0.5" relative="1" as="geometry">
        <mxPoint as="offset" />
      </mxGeometry>
    </mxCell><mxCell id="506d687b06324468074e1eed7d080a78-trgt" value="eth1" style="edgeLabel;html=1;align=center;verticalAlign=middle;resizable=0;points=[];;" vertex="1" connectable="0" parent="506d687b06324468074e1eed7d080a78">
      <mxGeometry x="0.5" relative="-1" as="geometry">
        <mxPoint as="offset" />
      </mxGeometry>
    </mxCell><object id="506d687b06324468074e1eed7d080a78" label="" src_label="e1-1" trgt_label="eth1" source="pe1" target="client11">
      <mxCell style="endArrow=none;jumpStyle=gap;entryY=0;exitY=1;entryX=0.5;exitX=0.5;" edge="1" parent="1" source="pe1" target="client11">
          <mxGeometry relative="1" as="geometry" />
      </mxCell>
    </object><mxCell id="52521cb9b63fcaeeb5d92621f6cd4601-src" value="e1-2" style="edgeLabel;html=1;align=center;verticalAlign=middle;resizable=0;points=[];;" vertex="1" connectable="0" parent="52521cb9b63fcaeeb5d92621f6cd4601">
      <mxGeometry x="-0.5" relative="1" as="geometry">
        <mxPoint as="offset" />
      </mxGeometry>
    </mxCell><mxCell id="52521cb9b63fcaeeb5d92621f6cd4601-trgt" value="eth1" style="edgeLabel;html=1;align=center;verticalAlign=middle;resizable=0;points=[];;" vertex="1" connectable="0" parent="52521cb9b63fcaeeb5d92621f6cd4601">
      <mxGeometry x="0.5" relative="-1" as="geometry">
        <mxPoint as="offset" />
      </mxGeometry>
    </mxCell><object id="52521cb9b63fcaeeb5d92621f6cd4601" label="" src_label="e1-2" trgt_label="eth1" source="pe1" target="client12">
      <mxCell style="endArrow=none;jumpStyle=gap;entryY=0;exitY=1;entryX=0.5;exitX=0.5;" edge="1" parent="1" source="pe1" target="client12">
          <mxGeometry relative="1" as="geometry" />
      </mxCell>
    </object><mxCell id="3b14f11407655847e8262a835524bcb4-src" value="e1-3" style="edgeLabel;html=1;align=center;verticalAlign=middle;resizable=0;points=[];;" vertex="1" connectable="0" parent="3b14f11407655847e8262a835524bcb4">
      <mxGeometry x="-0.5" relative="1" as="geometry">
        <mxPoint as="offset" />
      </mxGeometry>
    </mxCell><mxCell id="3b14f11407655847e8262a835524bcb4-trgt" value="eth1" style="edgeLabel;html=1;align=center;verticalAlign=middle;resizable=0;points=[];;" vertex="1" connectable="0" parent="3b14f11407655847e8262a835524bcb4">
      <mxGeometry x="0.5" relative="-1" as="geometry">
        <mxPoint as="offset" />
      </mxGeometry>
    </mxCell><object id="3b14f11407655847e8262a835524bcb4" label="" src_label="e1-3" trgt_label="eth1" source="pe1" target="client13">
      <mxCell style="endArrow=none;jumpStyle=gap;entryY=0;exitY=1;entryX=0.5;exitX=0.5;" edge="1" parent="1" source="pe1" target="client13">
          <mxGeometry relative="1" as="geometry" />
      </mxCell>
    </object><mxCell id="d17b17cc3cefb52f42761bcb7d6b3fc9-src" value="e1-10" style="edgeLabel;html=1;align=center;verticalAlign=middle;resizable=0;points=[];;" vertex="1" connectable="0" parent="d17b17cc3cefb52f42761bcb7d6b3fc9">
      <mxGeometry x="-0.5" relative="1" as="geometry">
        <mxPoint as="offset" />
      </mxGeometry>
    </mxCell><mxCell id="d17b17cc3cefb52f42761bcb7d6b3fc9-trgt" value="e1-10" style="edgeLabel;html=1;align=center;verticalAlign=middle;resizable=0;points=[];;" vertex="1" connectable="0" parent="d17b17cc3cefb52f42761bcb7d6b3fc9">
      <mxGeometry x="0.5" relative="-1" as="geometry">
        <mxPoint as="offset" />
      </mxGeometry>
    </mxCell><object id="d17b17cc3cefb52f42761bcb7d6b3fc9" label="" src_label="e1-10" trgt_label="e1-10" source="pe1" target="br4">
      <mxCell style="endArrow=none;jumpStyle=gap;entryY=0;exitY=1;entryX=0.5;exitX=0.5;" edge="1" parent="1" source="pe1" target="br4">
          <mxGeometry relative="1" as="geometry" />
      </mxCell>
    </object><mxCell id="047bf35fa572bf545dea7507c1d45042-src" value="e1-11" style="edgeLabel;html=1;align=center;verticalAlign=middle;resizable=0;points=[];;" vertex="1" connectable="0" parent="047bf35fa572bf545dea7507c1d45042">
      <mxGeometry x="-0.5" relative="1" as="geometry">
        <mxPoint as="offset" />
      </mxGeometry>
    </mxCell><mxCell id="047bf35fa572bf545dea7507c1d45042-trgt" value="e1-10" style="edgeLabel;html=1;align=center;verticalAlign=middle;resizable=0;points=[];;" vertex="1" connectable="0" parent="047bf35fa572bf545dea7507c1d45042">
      <mxGeometry x="0.5" relative="-1" as="geometry">
        <mxPoint as="offset" />
      </mxGeometry>
    </mxCell><object id="047bf35fa572bf545dea7507c1d45042" label="" src_label="e1-11" trgt_label="e1-10" source="br4" target="br5">
      <mxCell style="endArrow=none;jumpStyle=gap;entryY=0;exitY=1;entryX=0.5;exitX=0.5;" edge="1" parent="1" source="br4" target="br5">
          <mxGeometry relative="1" as="geometry" />
      </mxCell>
    </object><mxCell id="77d00c281db7283a082ff208c4a3db33-src" value="e1-12" style="edgeLabel;html=1;align=center;verticalAlign=middle;resizable=0;points=[];;" vertex="1" connectable="0" parent="77d00c281db7283a082ff208c4a3db33">
      <mxGeometry x="-0.5" relative="1" as="geometry">
        <mxPoint as="offset" />
      </mxGeometry>
    </mxCell><mxCell id="77d00c281db7283a082ff208c4a3db33-trgt" value="e1-10" style="edgeLabel;html=1;align=center;verticalAlign=middle;resizable=0;points=[];;" vertex="1" connectable="0" parent="77d00c281db7283a082ff208c4a3db33">
      <mxGeometry x="0.5" relative="-1" as="geometry">
        <mxPoint as="offset" />
      </mxGeometry>
    </mxCell><object id="77d00c281db7283a082ff208c4a3db33" label="" src_label="e1-12" trgt_label="e1-10" source="br4" target="br6">
      <mxCell style="endArrow=none;jumpStyle=gap;entryY=0;exitY=1;entryX=0.5;exitX=0.5;" edge="1" parent="1" source="br4" target="br6">
          <mxGeometry relative="1" as="geometry" />
      </mxCell>
    </object><mxCell id="1456a7cb02455e42826fe0e43cc188b2-src" value="e1-11" style="edgeLabel;html=1;align=center;verticalAlign=middle;resizable=0;points=[];;" vertex="1" connectable="0" parent="1456a7cb02455e42826fe0e43cc188b2">
      <mxGeometry x="-0.5" relative="1" as="geometry">
        <mxPoint as="offset" />
      </mxGeometry>
    </mxCell><mxCell id="1456a7cb02455e42826fe0e43cc188b2-trgt" value="e1-10" style="edgeLabel;html=1;align=center;verticalAlign=middle;resizable=0;points=[];;" vertex="1" connectable="0" parent="1456a7cb02455e42826fe0e43cc188b2">
      <mxGeometry x="0.5" relative="-1" as="geometry">
        <mxPoint as="offset" />
      </mxGeometry>
    </mxCell><object id="1456a7cb02455e42826fe0e43cc188b2" label="" src_label="e1-11" trgt_label="e1-10" source="br5" target="pe2">
      <mxCell style="endArrow=none;jumpStyle=gap;entryY=0;exitY=1;entryX=0.5;exitX=0.5;" edge="1" parent="1" source="br5" target="pe2">
          <mxGeometry relative="1" as="geometry" />
      </mxCell>
    </object><mxCell id="d8d8cbd4271bd54168806647ec7791de-src" value="e1-12" style="edgeLabel;html=1;align=center;verticalAlign=middle;resizable=0;points=[];;" vertex="1" connectable="0" parent="d8d8cbd4271bd54168806647ec7791de">
      <mxGeometry x="-0.5" relative="1" as="geometry">
        <mxPoint as="offset" />
      </mxGeometry>
    </mxCell><mxCell id="d8d8cbd4271bd54168806647ec7791de-trgt" value="e1-12" style="edgeLabel;html=1;align=center;verticalAlign=middle;resizable=0;points=[];;" vertex="1" connectable="0" parent="d8d8cbd4271bd54168806647ec7791de">
      <mxGeometry x="0.5" relative="-1" as="geometry">
        <mxPoint as="offset" />
      </mxGeometry>
    </mxCell><object id="d8d8cbd4271bd54168806647ec7791de" label="" src_label="e1-12" trgt_label="e1-12" source="br5" target="br6">
      <mxCell style="endArrow=none;jumpStyle=gap;entryY=0.5;exitY=0.5;entryX=0;exitX=1;" edge="1" parent="1" source="br5" target="br6">
          <mxGeometry relative="1" as="geometry" />
      </mxCell>
    </object><mxCell id="03460cf91bb068742b70c96e03e3a358-src" value="e1-11" style="edgeLabel;html=1;align=center;verticalAlign=middle;resizable=0;points=[];;" vertex="1" connectable="0" parent="03460cf91bb068742b70c96e03e3a358">
      <mxGeometry x="-0.5" relative="1" as="geometry">
        <mxPoint as="offset" />
      </mxGeometry>
    </mxCell><mxCell id="03460cf91bb068742b70c96e03e3a358-trgt" value="e1-10" style="edgeLabel;html=1;align=center;verticalAlign=middle;resizable=0;points=[];;" vertex="1" connectable="0" parent="03460cf91bb068742b70c96e03e3a358">
      <mxGeometry x="0.5" relative="-1" as="geometry">
        <mxPoint as="offset" />
      </mxGeometry>
    </mxCell><object id="03460cf91bb068742b70c96e03e3a358" label="" src_label="e1-11" trgt_label="e1-10" source="br6" target="pe3">
      <mxCell style="endArrow=none;jumpStyle=gap;entryY=0;exitY=1;entryX=0.5;exitX=0.5;" edge="1" parent="1" source="br6" target="pe3">
          <mxGeometry relative="1" as="geometry" />
      </mxCell>
    </object><mxCell id="8ea58d8aa66a6a733fd678344e64045f-src" value="e1-1" style="edgeLabel;html=1;align=center;verticalAlign=middle;resizable=0;points=[];;" vertex="1" connectable="0" parent="8ea58d8aa66a6a733fd678344e64045f">
      <mxGeometry x="-0.5" relative="1" as="geometry">
        <mxPoint as="offset" />
      </mxGeometry>
    </mxCell><mxCell id="8ea58d8aa66a6a733fd678344e64045f-trgt" value="eth1" style="edgeLabel;html=1;align=center;verticalAlign=middle;resizable=0;points=[];;" vertex="1" connectable="0" parent="8ea58d8aa66a6a733fd678344e64045f">
      <mxGeometry x="0.5" relative="-1" as="geometry">
        <mxPoint as="offset" />
      </mxGeometry>
    </mxCell><object id="8ea58d8aa66a6a733fd678344e64045f" label="" src_label="e1-1" trgt_label="eth1" source="br6" target="client61">
      <mxCell style="endArrow=none;jumpStyle=gap;entryY=0;exitY=1;entryX=0.5;exitX=0.5;" edge="1" parent="1" source="br6" target="client61">
          <mxGeometry relative="1" as="geometry" />
      </mxCell>
    </object><mxCell id="d35e18e1090592bc6ea8aea288060beb-src" value="e1-2" style="edgeLabel;html=1;align=center;verticalAlign=middle;resizable=0;points=[];;" vertex="1" connectable="0" parent="d35e18e1090592bc6ea8aea288060beb">
      <mxGeometry x="-0.5" relative="1" as="geometry">
        <mxPoint as="offset" />
      </mxGeometry>
    </mxCell><mxCell id="d35e18e1090592bc6ea8aea288060beb-trgt" value="eth1" style="edgeLabel;html=1;align=center;verticalAlign=middle;resizable=0;points=[];;" vertex="1" connectable="0" parent="d35e18e1090592bc6ea8aea288060beb">
      <mxGeometry x="0.5" relative="-1" as="geometry">
        <mxPoint as="offset" />
      </mxGeometry>
    </mxCell><object id="d35e18e1090592bc6ea8aea288060beb" label="" src_label="e1-2" trgt_label="eth1" source="br6" target="client62">
      <mxCell style="endArrow=none;jumpStyle=gap;entryY=0;exitY=1;entryX=0.5;exitX=0.5;" edge="1" parent="1" source="br6" target="client62">
          <mxGeometry relative="1" as="geometry" />
      </mxCell>
    </object><mxCell id="a0737ce4f776d198410547f1d93d530c-src" value="e1-1" style="edgeLabel;html=1;align=center;verticalAlign=middle;resizable=0;points=[];;" vertex="1" connectable="0" parent="a0737ce4f776d198410547f1d93d530c">
      <mxGeometry x="-0.5" relative="1" as="geometry">
        <mxPoint as="offset" />
      </mxGeometry>
    </mxCell><mxCell id="a0737ce4f776d198410547f1d93d530c-trgt" value="eth1" style="edgeLabel;html=1;align=center;verticalAlign=middle;resizable=0;points=[];;" vertex="1" connectable="0" parent="a0737ce4f776d198410547f1d93d530c">
      <mxGeometry x="0.5" relative="-1" as="geometry">
        <mxPoint as="offset" />
      </mxGeometry>
    </mxCell><object id="a0737ce4f776d198410547f1d93d530c" label="" src_label="e1-1" trgt_label="eth1" source="pe2" target="client21">
      <mxCell style="endArrow=none;jumpStyle=gap;entryY=0;exitY=1;entryX=0.5;exitX=0.5;" edge="1" parent="1" source="pe2" target="client21">
          <mxGeometry relative="1" as="geometry" />
      </mxCell>
    </object><mxCell id="fb968e528cbafe607a28dc8f581b4e93-src" value="e1-2" style="edgeLabel;html=1;align=center;verticalAlign=middle;resizable=0;points=[];;" vertex="1" connectable="0" parent="fb968e528cbafe607a28dc8f581b4e93">
      <mxGeometry x="-0.5" relative="1" as="geometry">
        <mxPoint as="offset" />
      </mxGeometry>
    </mxCell><mxCell id="fb968e528cbafe607a28dc8f581b4e93-trgt" value="eth1" style="edgeLabel;html=1;align=center;verticalAlign=middle;resizable=0;points=[];;" vertex="1" connectable="0" parent="fb968e528cbafe607a28dc8f581b4e93">
      <mxGeometry x="0.5" relative="-1" as="geometry">
        <mxPoint as="offset" />
      </mxGeometry>
    </mxCell><object id="fb968e528cbafe607a28dc8f581b4e93" label="" src_label="e1-2" trgt_label="eth1" source="pe2" target="client232">
      <mxCell style="endArrow=none;jumpStyle=gap;entryY=0;exitY=1;entryX=0.5;exitX=0.5;" edge="1" parent="1" source="pe2" target="client232">
          <mxGeometry relative="1" as="geometry" />
      </mxCell>
    </object><mxCell id="dcb6d4b071882fbc1574f03962f46ae9-src" value="e1-3" style="edgeLabel;html=1;align=center;verticalAlign=middle;resizable=0;points=[];;" vertex="1" connectable="0" parent="dcb6d4b071882fbc1574f03962f46ae9">
      <mxGeometry x="-0.5" relative="1" as="geometry">
        <mxPoint as="offset" />
      </mxGeometry>
    </mxCell><mxCell id="dcb6d4b071882fbc1574f03962f46ae9-trgt" value="eth1" style="edgeLabel;html=1;align=center;verticalAlign=middle;resizable=0;points=[];;" vertex="1" connectable="0" parent="dcb6d4b071882fbc1574f03962f46ae9">
      <mxGeometry x="0.5" relative="-1" as="geometry">
        <mxPoint as="offset" />
      </mxGeometry>
    </mxCell><object id="dcb6d4b071882fbc1574f03962f46ae9" label="" src_label="e1-3" trgt_label="eth1" source="pe2" target="client231">
      <mxCell style="endArrow=none;jumpStyle=gap;entryY=0;exitY=1;entryX=0.5;exitX=0.5;" edge="1" parent="1" source="pe2" target="client231">
          <mxGeometry relative="1" as="geometry" />
      </mxCell>
    </object><mxCell id="5cafbc618c03ca3ab8178ce64bac8278-src" value="e1-11" style="edgeLabel;html=1;align=center;verticalAlign=middle;resizable=0;points=[];;" vertex="1" connectable="0" parent="5cafbc618c03ca3ab8178ce64bac8278">
      <mxGeometry x="-0.5" relative="1" as="geometry">
        <mxPoint as="offset" />
      </mxGeometry>
    </mxCell><mxCell id="5cafbc618c03ca3ab8178ce64bac8278-trgt" value="e1-11" style="edgeLabel;html=1;align=center;verticalAlign=middle;resizable=0;points=[];;" vertex="1" connectable="0" parent="5cafbc618c03ca3ab8178ce64bac8278">
      <mxGeometry x="0.5" relative="-1" as="geometry">
        <mxPoint as="offset" />
      </mxGeometry>
    </mxCell><object id="5cafbc618c03ca3ab8178ce64bac8278" label="" src_label="e1-11" trgt_label="e1-11" source="pe2" target="pe3">
      <mxCell style="endArrow=none;jumpStyle=gap;entryY=0.5;exitY=0.5;entryX=0;exitX=1;" edge="1" parent="1" source="pe2" target="pe3">
          <mxGeometry relative="1" as="geometry" />
      </mxCell>
    </object><mxCell id="ab5e80560cb98ea9692f7a57554158c1-src" value="e1-1" style="edgeLabel;html=1;align=center;verticalAlign=middle;resizable=0;points=[];;" vertex="1" connectable="0" parent="ab5e80560cb98ea9692f7a57554158c1">
      <mxGeometry x="-0.5" relative="1" as="geometry">
        <mxPoint as="offset" />
      </mxGeometry>
    </mxCell><mxCell id="ab5e80560cb98ea9692f7a57554158c1-trgt" value="eth2" style="edgeLabel;html=1;align=center;verticalAlign=middle;resizable=0;points=[];;" vertex="1" connectable="0" parent="ab5e80560cb98ea9692f7a57554158c1">
      <mxGeometry x="0.5" relative="-1" as="geometry">
        <mxPoint as="offset" />
      </mxGeometry>
    </mxCell><object id="ab5e80560cb98ea9692f7a57554158c1" label="" src_label="e1-1" trgt_label="eth2" source="pe3" target="client231">
      <mxCell style="endArrow=none;jumpStyle=gap;entryY=0;exitY=1;entryX=0.5;exitX=0.5;" edge="1" parent="1" source="pe3" target="client231">
          <mxGeometry relative="1" as="geometry" />
      </mxCell>
    </object><mxCell id="6cebcfcdc5326ef37b2ca9ad0f2069d4-src" value="e1-2" style="edgeLabel;html=1;align=center;verticalAlign=middle;resizable=0;points=[];;" vertex="1" connectable="0" parent="6cebcfcdc5326ef37b2ca9ad0f2069d4">
      <mxGeometry x="-0.5" relative="1" as="geometry">
        <mxPoint as="offset" />
      </mxGeometry>
    </mxCell><mxCell id="6cebcfcdc5326ef37b2ca9ad0f2069d4-trgt" value="eth2" style="edgeLabel;html=1;align=center;verticalAlign=middle;resizable=0;points=[];;" vertex="1" connectable="0" parent="6cebcfcdc5326ef37b2ca9ad0f2069d4">
      <mxGeometry x="0.5" relative="-1" as="geometry">
        <mxPoint as="offset" />
      </mxGeometry>
    </mxCell><object id="6cebcfcdc5326ef37b2ca9ad0f2069d4" label="" src_label="e1-2" trgt_label="eth2" source="pe3" target="client232">
      <mxCell style="endArrow=none;jumpStyle=gap;entryY=0;exitY=1;entryX=0.5;exitX=0.5;" edge="1" parent="1" source="pe3" target="client232">
          <mxGeometry relative="1" as="geometry" />
      </mxCell>
    </object><mxCell id="89d0157615e37c21b03bd974234a323b-src" value="e1-3" style="edgeLabel;html=1;align=center;verticalAlign=middle;resizable=0;points=[];;" vertex="1" connectable="0" parent="89d0157615e37c21b03bd974234a323b">
      <mxGeometry x="-0.5" relative="1" as="geometry">
        <mxPoint as="offset" />
      </mxGeometry>
    </mxCell><mxCell id="89d0157615e37c21b03bd974234a323b-trgt" value="eth1" style="edgeLabel;html=1;align=center;verticalAlign=middle;resizable=0;points=[];;" vertex="1" connectable="0" parent="89d0157615e37c21b03bd974234a323b">
      <mxGeometry x="0.5" relative="-1" as="geometry">
        <mxPoint as="offset" />
      </mxGeometry>
    </mxCell><object id="89d0157615e37c21b03bd974234a323b" label="" src_label="e1-3" trgt_label="eth1" source="pe3" target="client31">
      <mxCell style="endArrow=none;jumpStyle=gap;entryY=0;exitY=1;entryX=0.5;exitX=0.5;" edge="1" parent="1" source="pe3" target="client31">
          <mxGeometry relative="1" as="geometry" />
      </mxCell>
    </object></root>
      </mxGraphModel>
    </diagram></mxfile>